<svg width="144" height="19" viewBox="0 0 144 19" fill="none" xmlns="http://www.w3.org/2000/svg">
<path d="M32.8058 14.3322H30.6447V5.55374C30.6447 4.94268 30.764 4.4285 31.0024 4.01119C31.2459 3.58891 31.5862 3.27096 32.0234 3.05734C32.4655 2.83875 32.9896 2.72945 33.5957 2.72945C33.7944 2.72945 33.9857 2.74435 34.1695 2.77416C34.3533 2.799 34.5322 2.83129 34.7061 2.87104L34.6837 4.48811C34.5893 4.46327 34.49 4.44589 34.3856 4.43595C34.2813 4.42601 34.1596 4.42105 34.0205 4.42105C33.7622 4.42105 33.5411 4.46576 33.3573 4.55518C33.1784 4.63964 33.0418 4.76632 32.9474 4.93523C32.853 5.10414 32.8058 5.31031 32.8058 5.55374V14.3322ZM34.4154 6.26913V7.78933H29.445V6.26913H34.4154ZM35.1979 10.3826V10.2261C35.1979 9.63493 35.2824 9.09094 35.4513 8.59414C35.6202 8.09238 35.8661 7.65768 36.189 7.29005C36.5119 6.92242 36.9094 6.63676 37.3813 6.43307C37.8533 6.22442 38.3948 6.12009 39.0058 6.12009C39.6169 6.12009 40.1609 6.22442 40.6378 6.43307C41.1148 6.63676 41.5147 6.92242 41.8376 7.29005C42.1655 7.65768 42.4139 8.09238 42.5828 8.59414C42.7517 9.09094 42.8362 9.63493 42.8362 10.2261V10.3826C42.8362 10.9688 42.7517 11.5128 42.5828 12.0146C42.4139 12.5114 42.1655 12.9461 41.8376 13.3187C41.5147 13.6863 41.1172 13.972 40.6453 14.1757C40.1733 14.3793 39.6318 14.4812 39.0208 14.4812C38.4097 14.4812 37.8657 14.3793 37.3888 14.1757C36.9168 13.972 36.5169 13.6863 36.189 13.3187C35.8661 12.9461 35.6202 12.5114 35.4513 12.0146C35.2824 11.5128 35.1979 10.9688 35.1979 10.3826ZM37.3441 10.2261V10.3826C37.3441 10.7204 37.3739 11.0359 37.4335 11.329C37.4931 11.6221 37.5875 11.8805 37.7167 12.104C37.8508 12.3226 38.0247 12.494 38.2383 12.6182C38.4519 12.7424 38.7127 12.8045 39.0208 12.8045C39.3188 12.8045 39.5747 12.7424 39.7883 12.6182C40.0019 12.494 40.1733 12.3226 40.3025 12.104C40.4317 11.8805 40.526 11.6221 40.5857 11.329C40.6502 11.0359 40.6825 10.7204 40.6825 10.3826V10.2261C40.6825 9.89824 40.6502 9.59022 40.5857 9.30208C40.526 9.00897 40.4292 8.75063 40.295 8.52708C40.1659 8.29855 39.9945 8.1197 39.7809 7.99053C39.5672 7.86137 39.3089 7.79678 39.0058 7.79678C38.7028 7.79678 38.4445 7.86137 38.2308 7.99053C38.0222 8.1197 37.8508 8.29855 37.7167 8.52708C37.5875 8.75063 37.4931 9.00897 37.4335 9.30208C37.3739 9.59022 37.3441 9.89824 37.3441 10.2261ZM43.8124 10.3826V10.2261C43.8124 9.63493 43.8968 9.09094 44.0657 8.59414C44.2346 8.09238 44.4806 7.65768 44.8035 7.29005C45.1264 6.92242 45.5238 6.63676 45.9958 6.43307C46.4677 6.22442 47.0093 6.12009 47.6203 6.12009C48.2314 6.12009 48.7754 6.22442 49.2523 6.43307C49.7292 6.63676 50.1291 6.92242 50.4521 7.29005C50.7799 7.65768 51.0283 8.09238 51.1973 8.59414C51.3662 9.09094 51.4506 9.63493 51.4506 10.2261V10.3826C51.4506 10.9688 51.3662 11.5128 51.1973 12.0146C51.0283 12.5114 50.7799 12.9461 50.4521 13.3187C50.1291 13.6863 49.7317 13.972 49.2597 14.1757C48.7878 14.3793 48.2463 14.4812 47.6352 14.4812C47.0242 14.4812 46.4802 14.3793 46.0032 14.1757C45.5313 13.972 45.1314 13.6863 44.8035 13.3187C44.4806 12.9461 44.2346 12.5114 44.0657 12.0146C43.8968 11.5128 43.8124 10.9688 43.8124 10.3826ZM45.9585 10.2261V10.3826C45.9585 10.7204 45.9883 11.0359 46.048 11.329C46.1076 11.6221 46.202 11.8805 46.3311 12.104C46.4653 12.3226 46.6391 12.494 46.8528 12.6182C47.0664 12.7424 47.3272 12.8045 47.6352 12.8045C47.9333 12.8045 48.1891 12.7424 48.4028 12.6182C48.6164 12.494 48.7878 12.3226 48.917 12.104C49.0461 11.8805 49.1405 11.6221 49.2001 11.329C49.2647 11.0359 49.297 10.7204 49.297 10.3826V10.2261C49.297 9.89824 49.2647 9.59022 49.2001 9.30208C49.1405 9.00897 49.0436 8.75063 48.9095 8.52708C48.7803 8.29855 48.6089 8.1197 48.3953 7.99053C48.1817 7.86137 47.9234 7.79678 47.6203 7.79678C47.3173 7.79678 47.0589 7.86137 46.8453 7.99053C46.6367 8.1197 46.4653 8.29855 46.3311 8.52708C46.202 8.75063 46.1076 9.00897 46.048 9.30208C45.9883 9.59022 45.9585 9.89824 45.9585 10.2261ZM57.5314 12.5735V2.88594H59.6925V14.3322H57.7475L57.5314 12.5735ZM52.4343 10.3975V10.241C52.4343 9.625 52.5038 9.0661 52.6429 8.56434C52.782 8.0576 52.9857 7.6229 53.254 7.26024C53.5223 6.89758 53.8526 6.61689 54.2451 6.41817C54.6376 6.21945 55.0847 6.12009 55.5865 6.12009C56.0584 6.12009 56.4708 6.21945 56.8235 6.41817C57.1812 6.61689 57.4842 6.90006 57.7326 7.26769C57.986 7.63036 58.1897 8.06009 58.3437 8.55688C58.4977 9.04871 58.6095 9.58774 58.679 10.174V10.5167C58.6095 11.0781 58.4977 11.5998 58.3437 12.0817C58.1897 12.5636 57.986 12.9858 57.7326 13.3485C57.4842 13.7062 57.1812 13.9844 56.8235 14.1831C56.4658 14.3818 56.0485 14.4812 55.5716 14.4812C55.0698 14.4812 54.6227 14.3793 54.2302 14.1757C53.8427 13.972 53.5148 13.6863 53.2465 13.3187C52.9832 12.9511 52.782 12.5188 52.6429 12.022C52.5038 11.5252 52.4343 10.9837 52.4343 10.3975ZM54.5804 10.241V10.3975C54.5804 10.7304 54.6053 11.0409 54.655 11.329C54.7096 11.6172 54.7966 11.873 54.9158 12.0966C55.04 12.3152 55.199 12.4866 55.3927 12.6108C55.5914 12.73 55.8324 12.7896 56.1156 12.7896C56.4832 12.7896 56.7862 12.7076 57.0247 12.5437C57.2632 12.3748 57.4445 12.1438 57.5687 11.8507C57.6979 11.5575 57.7724 11.2197 57.7922 10.8372V9.86098C57.7773 9.54799 57.7326 9.2673 57.6581 9.01891C57.5886 8.76554 57.4842 8.54943 57.3451 8.37058C57.211 8.19174 57.0421 8.05263 56.8384 7.95327C56.6397 7.85392 56.4037 7.80424 56.1305 7.80424C55.8522 7.80424 55.6138 7.86882 55.4151 7.99799C55.2163 8.12219 55.0549 8.29358 54.9307 8.51217C54.8115 8.73076 54.722 8.9891 54.6624 9.28718C54.6078 9.58029 54.5804 9.89824 54.5804 10.241ZM68.8808 14.4812C68.2548 14.4812 67.6934 14.3818 67.1966 14.1831C66.6998 13.9794 66.2775 13.6987 65.9298 13.341C65.587 12.9833 65.3237 12.5685 65.1399 12.0966C64.9561 11.6196 64.8642 11.1129 64.8642 10.5764V10.2783C64.8642 9.66723 64.9511 9.10833 65.125 8.6016C65.2989 8.09486 65.5472 7.6552 65.8702 7.2826C66.1981 6.91 66.5955 6.62434 67.0625 6.42562C67.5295 6.22194 68.0561 6.12009 68.6423 6.12009C69.2136 6.12009 69.7203 6.21448 70.1625 6.40327C70.6046 6.59205 70.9748 6.86032 71.2728 7.20808C71.5759 7.55584 71.8044 7.97315 71.9584 8.46001C72.1124 8.9419 72.1894 9.47844 72.1894 10.0696V10.9639H65.7807V9.53309H70.0805V9.36915C70.0805 9.07107 70.0259 8.80528 69.9166 8.57179C69.8123 8.33332 69.6533 8.14454 69.4397 8.00544C69.226 7.86634 68.9528 7.79678 68.6199 7.79678C68.3368 7.79678 68.0933 7.85888 67.8896 7.98308C67.686 8.10728 67.5195 8.28116 67.3904 8.50472C67.2662 8.72828 67.1718 8.99158 67.1072 9.29463C67.0476 9.59271 67.0178 9.92059 67.0178 10.2783V10.5764C67.0178 10.8993 67.0625 11.1974 67.1519 11.4706C67.2463 11.7438 67.3779 11.9798 67.5469 12.1785C67.7207 12.3773 67.9294 12.5313 68.1728 12.6406C68.4212 12.7499 68.7019 12.8045 69.0149 12.8045C69.4024 12.8045 69.7626 12.73 70.0954 12.5809C70.4333 12.4269 70.7239 12.1959 70.9673 11.8879L72.0106 13.0206C71.8417 13.264 71.6107 13.4975 71.3176 13.7211C71.0294 13.9447 70.6817 14.1285 70.2743 14.2725C69.8669 14.4116 69.4024 14.4812 68.8808 14.4812ZM75.1404 6.26913L76.4743 8.72083L77.8455 6.26913H80.1332L77.8529 10.2112L80.2375 14.3322H77.9423L76.4892 11.7389L75.0361 14.3322H72.7409L75.1255 10.2112L72.8452 6.26913H75.1404ZM83.3227 7.81914V17.4322H81.1765V6.26913H83.1662L83.3227 7.81914ZM88.4273 10.2112V10.3677C88.4273 10.9539 88.3577 11.4979 88.2186 11.9997C88.0845 12.5015 87.8857 12.9386 87.6224 13.3112C87.3591 13.6789 87.0313 13.967 86.6388 14.1757C86.2513 14.3793 85.8042 14.4812 85.2974 14.4812C84.8056 14.4812 84.3784 14.3818 84.0157 14.1831C83.653 13.9844 83.3475 13.7062 83.0991 13.3485C82.8557 12.9858 82.6594 12.566 82.5104 12.0891C82.3614 11.6122 82.2471 11.1005 82.1676 10.554V10.1442C82.2471 9.55793 82.3614 9.02139 82.5104 8.53453C82.6594 8.0427 82.8557 7.61794 83.0991 7.26024C83.3475 6.89758 83.6505 6.61689 84.0082 6.41817C84.3709 6.21945 84.7957 6.12009 85.2825 6.12009C85.7942 6.12009 86.2438 6.21697 86.6313 6.41072C87.0238 6.60447 87.3517 6.88268 87.615 7.24534C87.8833 7.608 88.0845 8.04021 88.2186 8.54198C88.3577 9.04375 88.4273 9.60016 88.4273 10.2112ZM86.2736 10.3677V10.2112C86.2736 9.86843 86.2438 9.55296 86.1842 9.26482C86.1296 8.97171 86.0401 8.71586 85.9159 8.49727C85.7967 8.27868 85.6377 8.10977 85.439 7.99053C85.2453 7.86634 85.0093 7.80424 84.7311 7.80424C84.438 7.80424 84.1871 7.85143 83.9784 7.94582C83.7747 8.04021 83.6083 8.17683 83.4792 8.35568C83.35 8.53453 83.2531 8.74815 83.1885 8.99655C83.1239 9.24495 83.0842 9.52564 83.0693 9.83862V10.8744C83.0941 11.2421 83.1637 11.5724 83.2779 11.8656C83.3922 12.1537 83.5686 12.3822 83.807 12.5511C84.0455 12.72 84.3585 12.8045 84.746 12.8045C85.0292 12.8045 85.2676 12.7424 85.4614 12.6182C85.6551 12.489 85.8116 12.3127 85.9308 12.0891C86.055 11.8656 86.142 11.6072 86.1917 11.3141C86.2463 11.021 86.2736 10.7055 86.2736 10.3677ZM92.0265 2.88594V14.3322H89.8729V2.88594H92.0265ZM93.4573 10.3826V10.2261C93.4573 9.63493 93.5418 9.09094 93.7107 8.59414C93.8796 8.09238 94.1255 7.65768 94.4484 7.29005C94.7714 6.92242 95.1688 6.63676 95.6407 6.43307C96.1127 6.22442 96.6542 6.12009 97.2653 6.12009C97.8763 6.12009 98.4203 6.22442 98.8973 6.43307C99.3742 6.63676 99.7741 6.92242 100.097 7.29005C100.425 7.65768 100.673 8.09238 100.842 8.59414C101.011 9.09094 101.096 9.63493 101.096 10.2261V10.3826C101.096 10.9688 101.011 11.5128 100.842 12.0146C100.673 12.5114 100.425 12.9461 100.097 13.3187C99.7741 13.6863 99.3767 13.972 98.9047 14.1757C98.4328 14.3793 97.8912 14.4812 97.2802 14.4812C96.6691 14.4812 96.1251 14.3793 95.6482 14.1757C95.1762 13.972 94.7763 13.6863 94.4484 13.3187C94.1255 12.9461 93.8796 12.5114 93.7107 12.0146C93.5418 11.5128 93.4573 10.9688 93.4573 10.3826ZM95.6035 10.2261V10.3826C95.6035 10.7204 95.6333 11.0359 95.6929 11.329C95.7525 11.6221 95.8469 11.8805 95.9761 12.104C96.1102 12.3226 96.2841 12.494 96.4977 12.6182C96.7113 12.7424 96.9722 12.8045 97.2802 12.8045C97.5783 12.8045 97.8341 12.7424 98.0477 12.6182C98.2614 12.494 98.4328 12.3226 98.5619 12.104C98.6911 11.8805 98.7855 11.6221 98.8451 11.329C98.9097 11.0359 98.942 10.7204 98.942 10.3826V10.2261C98.942 9.89824 98.9097 9.59022 98.8451 9.30208C98.7855 9.00897 98.6886 8.75063 98.5545 8.52708C98.4253 8.29855 98.2539 8.1197 98.0403 7.99053C97.8267 7.86137 97.5683 7.79678 97.2653 7.79678C96.9622 7.79678 96.7039 7.86137 96.4903 7.99053C96.2816 8.1197 96.1102 8.29855 95.9761 8.52708C95.8469 8.75063 95.7525 9.00897 95.6929 9.30208C95.6333 9.59022 95.6035 9.89824 95.6035 10.2261ZM104.561 8.02779V14.3322H102.415V6.26913H104.434L104.561 8.02779ZM106.99 6.21697L106.953 8.20664C106.848 8.19174 106.722 8.17932 106.573 8.16938C106.429 8.15448 106.297 8.14703 106.178 8.14703C105.875 8.14703 105.611 8.18677 105.388 8.26626C105.169 8.34078 104.986 8.45256 104.836 8.6016C104.692 8.75063 104.583 8.93197 104.509 9.14559C104.439 9.35921 104.399 9.60264 104.389 9.87588L103.957 9.74175C103.957 9.22011 104.009 8.7407 104.114 8.30352C104.218 7.86137 104.369 7.47635 104.568 7.14846C104.772 6.82058 105.02 6.56721 105.313 6.38836C105.607 6.20952 105.942 6.12009 106.319 6.12009C106.439 6.12009 106.56 6.13003 106.685 6.1499C106.809 6.1648 106.911 6.18716 106.99 6.21697ZM111.566 14.4812C110.94 14.4812 110.378 14.3818 109.881 14.1831C109.385 13.9794 108.962 13.6987 108.615 13.341C108.272 12.9833 108.009 12.5685 107.825 12.0966C107.641 11.6196 107.549 11.1129 107.549 10.5764V10.2783C107.549 9.66723 107.636 9.10833 107.81 8.6016C107.984 8.09486 108.232 7.6552 108.555 7.2826C108.883 6.91 109.28 6.62434 109.747 6.42562C110.214 6.22194 110.741 6.12009 111.327 6.12009C111.898 6.12009 112.405 6.21448 112.847 6.40327C113.289 6.59205 113.66 6.86032 113.958 7.20808C114.261 7.55584 114.489 7.97315 114.643 8.46001C114.797 8.9419 114.874 9.47844 114.874 10.0696V10.9639H108.466V9.53309H112.765V9.36915C112.765 9.07107 112.711 8.80528 112.601 8.57179C112.497 8.33332 112.338 8.14454 112.124 8.00544C111.911 7.86634 111.638 7.79678 111.305 7.79678C111.022 7.79678 110.778 7.85888 110.574 7.98308C110.371 8.10728 110.204 8.28116 110.075 8.50472C109.951 8.72828 109.857 8.99158 109.792 9.29463C109.732 9.59271 109.703 9.92059 109.703 10.2783V10.5764C109.703 10.8993 109.747 11.1974 109.837 11.4706C109.931 11.7438 110.063 11.9798 110.232 12.1785C110.406 12.3773 110.614 12.5313 110.858 12.6406C111.106 12.7499 111.387 12.8045 111.7 12.8045C112.087 12.8045 112.447 12.73 112.78 12.5809C113.118 12.4269 113.409 12.1959 113.652 11.8879L114.695 13.0206C114.527 13.264 114.295 13.4975 114.002 13.7211C113.714 13.9447 113.366 14.1285 112.959 14.2725C112.552 14.4116 112.087 14.4812 111.566 14.4812ZM118.243 8.02779V14.3322H116.096V6.26913H118.116L118.243 8.02779ZM120.672 6.21697L120.635 8.20664C120.53 8.19174 120.404 8.17932 120.255 8.16938C120.111 8.15448 119.979 8.14703 119.86 8.14703C119.557 8.14703 119.293 8.18677 119.07 8.26626C118.851 8.34078 118.667 8.45256 118.518 8.6016C118.374 8.75063 118.265 8.93197 118.19 9.14559C118.121 9.35921 118.081 9.60264 118.071 9.87588L117.639 9.74175C117.639 9.22011 117.691 8.7407 117.795 8.30352C117.9 7.86137 118.051 7.47635 118.25 7.14846C118.454 6.82058 118.702 6.56721 118.995 6.38836C119.288 6.20952 119.624 6.12009 120.001 6.12009C120.12 6.12009 120.242 6.13003 120.366 6.1499C120.491 6.1648 120.592 6.18716 120.672 6.21697Z" fill="#4D585E"/>
<path d="M11.7634 0.667969L21.2897 5.16797V14.168L11.7634 18.668L2.23715 14.168V5.16797L11.7634 0.667969Z" fill="#4D585E"/>
</svg>
